<svg id="Layer_1" data-name="Layer 1" xmlns="http://www.w3.org/2000/svg" viewBox="0 0 176.02 149.88"><defs><style>.cls-1{fill:#ffe987;}.cls-2{fill:#231f20;}.cls-3{fill:#5c6b2f;}</style></defs><title>Artboard 5</title><ellipse class="cls-1" cx="84.88" cy="72.37" rx="48.4" ry="24.65" transform="translate(-24.92 91.98) rotate(-50.58)"/><path class="cls-2" d="M63.87,113.05a15.09,15.09,0,0,1-9.81-3.2c-5.12-4.21-6.72-12.08-4.5-22.15s8-21.07,16.18-31.07c17-20.67,39.4-30.42,50-21.75S121,67.43,104,88.1l-.1-.08.1.08C95.8,98.1,86.08,105.88,76.66,110A32.51,32.51,0,0,1,63.87,113.05Zm42-81.1c-11.47,0-27.23,9.35-40,24.84-8.2,10-13.92,21-16.13,31s-.63,17.75,4.42,21.9,13,4.18,22.34.1,19.07-11.85,27.27-21.82c16.9-20.56,22.15-44.28,11.71-52.87A14.86,14.86,0,0,0,105.9,32Z"/><ellipse class="cls-1" cx="91.14" cy="77.51" rx="48.4" ry="24.65" transform="translate(-26.61 98.69) rotate(-50.58)"/><path class="cls-2" d="M70.09,118.16A15,15,0,0,1,60.32,115C49.77,106.32,55,82.44,72,61.77c8.22-10,17.93-17.77,27.35-21.88s17.48-4.08,22.6.13,6.73,12.08,4.51,22.15-8,21.07-16.18,31.07C97.5,108.79,81.65,118.16,70.09,118.16Zm42.05-81.08a32.23,32.23,0,0,0-12.69,3C90.07,44.21,80.39,52,72.19,61.93,55.28,82.49,50,106.21,60.48,114.8s32.7-1.15,49.6-21.71l.1.07-.1-.07c8.2-10,13.93-21,16.13-31s.63-17.75-4.42-21.9A14.81,14.81,0,0,0,112.14,37.08Z"/><path class="cls-3" d="M80.21,90.16l3.4-3.74a14.64,14.64,0,0,1-4.18-6.77L82.57,78a13.32,13.32,0,0,0,3.89,6.44c2.62,2.39,5.78,2.49,7.69.38s1.56-4.61-.17-8.21c-2.43-4.91-3.21-8.73-.29-12,2.79-3.07,7.1-3.41,11-.87l3.4-3.74,2.3,2.09-3.27,3.58a13.32,13.32,0,0,1,3.63,5.67L107.61,73a12,12,0,0,0-3.52-5.49c-2.85-2.59-5.47-1.87-6.81-.39C95.53,69,96,71.21,98,75.47c2.4,5,2.57,8.69-.42,12-2.66,2.93-7.18,3.82-11.57,1l-3.49,3.85Z"/></svg>