<svg id="Layer_1" data-name="Layer 1" xmlns="http://www.w3.org/2000/svg" viewBox="0 0 295.51 329.87"><defs><style>.cls-1{fill:#94192c;stroke:#88171a;stroke-miterlimit:10;}</style></defs><title>Artboard 20</title><path class="cls-1" d="M148.85,66.38c-2.41-6.44-11.67-28.76-36-42.12-22-12.12-52.21-14.53-73.37-.93C-2.9,50.57,13.4,127.56,16.34,141.45c.15.71.34,1.58.58,2.6,7.74,33,22.53,55.4,33.12,70.93,16.72,24.51,49.84,63.79,98.81,106.85"/><path class="cls-1" d="M148.85,66.38c2.41-6.44,11.67-28.76,36-42.12,22.05-12.12,52.22-14.53,73.37-.93,42.38,27.24,26.08,104.23,23.14,118.12-.15.71-.34,1.58-.58,2.6-7.74,33-22.53,55.4-33.12,70.93-16.71,24.5-49.91,63.88-99,107.06"/></svg>