<svg id="Layer_1" data-name="Layer 1" xmlns="http://www.w3.org/2000/svg" viewBox="0 0 276.77 308.95"><defs><style>.cls-1{fill:#231f20;}</style></defs><title>Artboard 21</title><path class="cls-1" d="M247,153.68c0,1,.39.64.47.79C247.3,152.78,246.85,153.72,247,153.68Z"/><polygon class="cls-1" points="244.64 137.27 244.86 137.53 244.02 135.21 244.64 137.27"/><path class="cls-1" d="M241.13,122.28c-.29,1.6,1.71,5.31,2,8.08l0,.47.84,1.09c-.44-1.62-.93-3.48-1.5-5.19A43.67,43.67,0,0,1,241.13,122.28Z"/><path class="cls-1" d="M239.78,114c-.07.58-.88-1.59.64,1.84a3,3,0,0,1-.07-.35C240.22,115.14,240.06,114.71,239.78,114Z"/><path class="cls-1" d="M240.35,115.46c.62,1.52-.18-1.09,0,0Z"/><path class="cls-1" d="M237.24,108.52l1.12,1.88c0-.48-.8-2.26-.39-1.66C236.92,106.76,237,107.26,237.24,108.52Z"/><path class="cls-1" d="M235.9,106.89c.21.32.4.64.58,1C236.47,107.65,236.37,107.36,235.9,106.89Z"/><path class="cls-1" d="M237.66,109.92l-1.18-2.07c0,.34-.17.46.53,1C236.73,108.72,237.11,109.06,237.66,109.92Z"/><path class="cls-1" d="M238.12,111.19c.37,1.16.84,2.65-.21.75.84,1.88,1.27,2.65,1.34,2.46A9.93,9.93,0,0,0,238.12,111.19Z"/><path class="cls-1" d="M240.17,121.76c.11.52.22,1,.29,1.58l.6,1.25a11.47,11.47,0,0,1-.46-1.72C240.44,122.22,240.26,121.68,240.17,121.76Z"/><path class="cls-1" d="M231.12,96.48c-.2,0,0,.83,0,1.07.35.41.66.84,1,1.28C231.76,98.05,231,96.7,231.12,96.48Z"/><path class="cls-1" d="M231.09,97.55l-1.51-1.87C230.71,97.49,231,97.75,231.09,97.55Z"/><path class="cls-1" d="M235,106.9c.78,1.06,1.42,2.19,2.14,3.3-.81-1.34-1.59-2.68-2.49-4Z"/><path class="cls-1" d="M226,88.9l1.08.9c-.6-.57-1.23-1.11-1.88-1.63Z"/><path class="cls-1" d="M222.12,84.19c.89.57-.53-1.37.31-.68a24.41,24.41,0,0,0-3.26-2.92A18.52,18.52,0,0,1,222.12,84.19Z"/><path class="cls-1" d="M217.46,79.27c.52.44,1.09.85,1.71,1.32A14.68,14.68,0,0,0,217.46,79.27Z"/><path class="cls-1" d="M227.38,92.27a4.06,4.06,0,0,0-.73-1.79l.19,1C227,91.73,227.19,92,227.38,92.27Z"/><path class="cls-1" d="M226.85,91.53v0l-1.15-1.67Z"/><path class="cls-1" d="M227.52,92.46l-.14-.19C227.4,92.37,227.42,92.42,227.52,92.46Z"/><path class="cls-1" d="M232.44,101.24c-.9-1.1-2.56-3.46-1.48-.86C231.71,101.1,231.09,99.6,232.44,101.24Z"/><path class="cls-1" d="M227.75,93.71c.46.7.86,1.45,1.3,2.16.06-.1,0-.57.43-.05C228.9,95.11,228.35,94.39,227.75,93.71Z"/><polygon class="cls-1" points="226.93 92.78 227.75 93.71 227.24 92.93 226.93 92.78"/><path class="cls-1" d="M220.11,82.75a15.5,15.5,0,0,1-1.26-1.19c-.43-.43-.89-.88-1.36-1.36.95,1.09,1.89,2.25,2.82,3.33C220.54,83.59,221.13,83.91,220.11,82.75Z"/><path class="cls-1" d="M223.47,87l-.17-.18C223.36,86.92,223.43,87,223.47,87Z"/><path class="cls-1" d="M207.83,71.08l.11.2.08,0Z"/><path class="cls-1" d="M220.41,83.77a7.71,7.71,0,0,0,1.66,1.68c-.57-.59-1.15-1.22-1.76-1.92C220.21,83.5,220.16,83.52,220.41,83.77Z"/><path class="cls-1" d="M214.71,76.74c.36.45.77,1,1.18,1.5A5,5,0,0,0,214.71,76.74Z"/><path class="cls-1" d="M223.16,86.42l.12.11C223.13,86.19,223.12,86.26,223.16,86.42Z"/><path class="cls-1" d="M223.16,86.42a10,10,0,0,0-1.09-1c.44.49.85,1,1.23,1.33A2.9,2.9,0,0,1,223.16,86.42Z"/><path class="cls-1" d="M203,70.74c.19-.1.9.21,1.76.77a12.83,12.83,0,0,1,1.36,1,12.41,12.41,0,0,1,1.27,1.34c2,1.33,1.69-.65.55-2.6-.18.09-.24.16-2.35-1.18.59.66,3.89,3.92,2.07,2.83a17.81,17.81,0,0,1-2.11-1.78,13.6,13.6,0,0,0-1-1.19c.76,1.21-3.72-2-3.6-.93.83.46,1.61,1,2.41,1.51C203.36,70.66,202.44,70.17,203,70.74Z"/><path class="cls-1" d="M211.5,74.43l.78.68c-.79-.88-1.32-1.54-2.29-2.78-1.43-1-1.79-1.1-2-1.08,1.26,1.13,2.55,2.22,3.78,3.38Z"/><path class="cls-1" d="M215.6,78.32c-.84-.31-2.78-1.83-2-.47,2.15,2.07,1.72,1.24,3.11,2.4-3.42-3.44,1.14.84-1.11-1.87.71.64,1.32,1.25,1.9,1.82-.57-.67-1.11-1.32-1.6-2l.05.1,0,0h0c.11.19.13.26,0,.07l-.07-.07a.55.55,0,0,1-.27,0c-.91-1.09-.08-.24.27,0,0,0,.06,0,.08,0v0c-1.16-1.13-2.44-2.15-3.66-3.23C213,75.87,214,76.72,215.6,78.32Z"/><path class="cls-1" d="M228.86,98.66c-.05-.14,0-.15,0-.18C228.65,98.25,228.55,98.17,228.86,98.66Z"/><path class="cls-1" d="M228,96.86a5.44,5.44,0,0,1,1.12,1.4c.42.89-.18.1-.27.22.47.51,1.53,1.87.57-.06l-.23-.26a15.44,15.44,0,0,1-1.59-3.85A7.61,7.61,0,0,0,228,96.86Z"/><path class="cls-1" d="M222.14,87.27c-.86-1-1.81-2-2.74-3l1,1.79.11-.22C221.94,87.7,221.82,87.16,222.14,87.27Z"/><path class="cls-1" d="M207.61,70.61h.7c-.72-.36-1.49-.65-2.24-1Z"/><path class="cls-1" d="M203.42,67.38l.39-.2c-.41-.22-.85-.42-1.27-.63Z"/><path class="cls-1" d="M49.08,207.35l.67.93A10.42,10.42,0,0,0,49.08,207.35Z"/><path class="cls-1" d="M45.17,200.07l-.27-.1C45.17,200.26,45.32,200.37,45.17,200.07Z"/><path class="cls-1" d="M81.22,62.08c-1.66.63-3.63,1.21-3.2,1.46l.69.08A15.24,15.24,0,0,1,81.22,62.08Z"/><path class="cls-1" d="M34.39,133.61l.21-.47c-.05-.43-.1-.84-.14-1.2C34.44,132.44,34.38,133,34.39,133.61Z"/><path class="cls-1" d="M35.94,135.12l-.66,2.12A22.11,22.11,0,0,0,35.94,135.12Z"/><path class="cls-1" d="M80,239.69c.44.13.88.27,1.34.38C79.59,238.92,80.23,239.6,80,239.69Z"/><path class="cls-1" d="M153.83,47.05c-1.46-.35-2.64-.58-3.68-.73C151.92,46.8,153.31,47.35,153.83,47.05Z"/><path class="cls-1" d="M43.43,206.75c.43.59.66.82.74.75C43.73,206.89,43.45,206.56,43.43,206.75Z"/><path class="cls-1" d="M145.82,46l.78.16a28.66,28.66,0,0,1,3.55.2A11.68,11.68,0,0,0,145.82,46Z"/><path class="cls-1" d="M224.35,212.46c.08-.09.16-.2.24-.28S224.47,212.25,224.35,212.46Z"/><path class="cls-1" d="M245.46,168.87c0,.49-.14,1.28-.22,2A17.24,17.24,0,0,0,245.46,168.87Z"/><path class="cls-1" d="M185.32,56.21c1,.46.18,0,0,0Z"/><path class="cls-1" d="M189.37,60.19c-.23-.06-.42-.09-.49,0A.82.82,0,0,1,189.37,60.19Z"/><path class="cls-1" d="M134.73,48.47h-.09C135,48.55,134.91,48.53,134.73,48.47Z"/><path class="cls-1" d="M186.74,57.14c-.35-.24-.76-.5-1.22-.77C185.71,56.5,186.08,56.74,186.74,57.14Z"/><path class="cls-1" d="M186.63,56.85l.85.49C187.64,57.34,187.55,57.24,186.63,56.85Z"/><path class="cls-1" d="M183.88,55.58c.59.26,1.13.53,1.64.79-.19-.12-.26-.18-.2-.16Z"/><path class="cls-1" d="M152.15,258.39h.23C153.44,258.08,153,258.17,152.15,258.39Z"/><path class="cls-1" d="M62.06,83.65l.07-.1-.12.1Z"/><path class="cls-1" d="M59.74,86.74A7.18,7.18,0,0,1,62,83.65c-.6,0-1.21,0-1.81.09Z"/><path class="cls-1" d="M60.84,223.23l-1.47-2.29c2.6,2,4,3.92,2.73,1.67-.31.16-.9-.25-1.63-.94A25.62,25.62,0,0,1,58.05,219c-.82-1-1.63-2-2.33-2.76s-1.21-1.23-1.54-1.1l-.8-1.62c.28.42.4.44.68.86-1.48-3.17-2.29-1.54-4.56-5.42-.73-1.39-1.07-2.45-.42-1.6l-2-2.85c-.47-.89-.15-.78.33.1-.9-1.52-1.69-3.1-2.54-4.65l0,0a29,29,0,0,1-2-2.72c-.38-1.31.41.56.42.17-.5-.85-1-1.69-1.5-2.56-.06-.63.22-.4.59.21a16.15,16.15,0,0,1,1.33,2.52,4,4,0,0,0-.82-2.89,15.66,15.66,0,0,1-1.93-5c.36.85.77,1.68,1.16,2.51a10.7,10.7,0,0,0-.52-3c-.29-1.11-.66-2.37-.92-3.9,0,.75.84,6.27-.49,3.38a14.81,14.81,0,0,0-1.32-3.56c.46-.16-.11-1.73-.71-3.74l.65,0a17,17,0,0,0-1.59-3.11c-.51-2.47-.15-3.08.17-3.74-.61-4-.29,2.89-1.25-1.79-.09-.84-.19-1.61-.32-2.35s-.21-1.48-.35-2.23c-.27-1.49-.67-3.05-1-5.05,0-2.37.43.38.54-.48l-.66-2c0-.52.14-.36.22-.28-.29-1.75-.65-.11-.91-2.89-.34-.36-.17-1.81.1-3.57a18.17,18.17,0,0,0,.26-5.59c.24-.83.36.44.63.19-.17-4.73-.12-4-.32-8,.27-1.08.54-2.16.9-3.22-.9,2.32-.92-.82-.89-3.63-.38.81-.71,1.51-.9,2,.14-1.47.28-2.95.53-4.41.22-.5.34,0,.44.75l0-.82c.58-1.49.76-.6.86.57l-.75,1.45c.19,1.15.44,2.22.85,2.07a9.3,9.3,0,0,1,.08-1.44c0,.3.11.49.2.38a5.39,5.39,0,0,0,0-1.34l.92-.81-.22-.29c.57-1.81,1.12-3.62,1.81-5.37.09-1,.18-2,.26-3s.26-2.05.43-3.16a26.86,26.86,0,0,1,.73-3.56A37.77,37.77,0,0,1,41,112.36c-.19,1.69.64.65,1.17,1a8.19,8.19,0,0,0-1.44,3.27l-.64,2.22a21.15,21.15,0,0,1-.73,2.35c.62-1.63.78-1.17.74-.71.4-2,1-3.84,1.53-5.77.41.31.8-1,1.66-2.35-.7.33-.4-.75.17-2.21s1.54-3.23,1.93-4.39c.37,0,.41.7-1,3.29,2.17-2.54.82-4.33,3-6.8-.35.63-.59.94-.58,1.27a18.4,18.4,0,0,1,1.61-3c.62-.94,1.19-1.52,1-1l-.38.61c.67-1,1.5-2.26,2.36-3.61s1.87-2.72,2.72-4c1.8-2.57,3.25-4.79,3.17-5.33a3.4,3.4,0,0,1,.34,1.48C58.8,85.79,60,83,61.31,80.22c0,1,3.26.17.82,3.33A28.85,28.85,0,0,0,65.55,80c-.63.45-2.14.6-1.42-.2,2.71-1.43,1.76-1.13,4.88-3-1,.65-.77-1,.67-2.24-.11.32.85.75.42,1.28.9-1.28,1.82-2.58,2.82-3.8-.78.87.44.87,1.43.49-.25.06.53-.55,1.48-1.28s2.16-1.47,2.62-1.88l-1.74.91a15.22,15.22,0,0,0,3.83-3.53,12.4,12.4,0,0,1,3.95-3.42c-.44.52-.6,2,1.73.82a23,23,0,0,1,7.39-7.44l1-.07c1-.6,2.07-1.23,3.14-1.76-.89.77-2.54,2.3-4.31,3.81s-3.54,3.22-4.85,4.28c1.83-.67.66.09,3.21-1.25,1-.19-1.18,1.13-1.92,1.53,2-1,4-1.94,6.08-2.76-.27-.24.82-.92,1.94-1.6s2.29-1.22,2.07-1.44c-2.21,1.06-4.31,2.35-6.43,3.55-.28-.25.48-1.11,1.87-2.16a19,19,0,0,1,2.54-1.62,27.93,27.93,0,0,1,3.21-1.41c1.23-.2-.43,1.46-.25,1.63a11,11,0,0,1,2.28-1.18,13.78,13.78,0,0,1,2.3-.77l-1.8,1a13.26,13.26,0,0,0,3.29-1.4A10.06,10.06,0,0,1,110.76,54c1.07-.3,3.39,0,3.48-.41-1.92-.34-2.89-2.55-1.82-3.39l3.31-.32a25.73,25.73,0,0,1,4-.08c1.91.27-2.46,1.89-.82,2.13,0-.2,1-.6,1.38-.74,1.17,0-.38.64,2.09.12.32-.74,5.11-.6,1.1-.73a14.44,14.44,0,0,1,2.6-.33c.71,0,1.47-.09,2.93-.19-1-.34,2.48-1.75,5-2-.14.17.44.39.71.48h3.48c1,0,2,.13,3,.19l2.91.2c1,.11,2.07.21,3.26.3.43.19,2.7.59,1.69.79a12.22,12.22,0,0,1,2.8,0c2.74,1-3.25-.32-1.19.66.22-.35,3.82-.13,5.92.06a5.25,5.25,0,0,0-2.85-.73c-1.39-.1-3-.11-4-.12,0-.42,1-.74,2.57-.91a21.32,21.32,0,0,1,2.81-.14c1.07,0,2.25.12,3.52.24,2,.24,2.39.53,2.38.66s-.43.22-.07.24a31.59,31.59,0,0,0,4.21.81,24.59,24.59,0,0,0,2.56.26,13.5,13.5,0,0,1,5.71,1.51c2.19,1.31-.24,1.05.15,1.59a24.9,24.9,0,0,1-3.75-1.35,31.44,31.44,0,0,0-3-1.1l2.55,1a19.1,19.1,0,0,1-4.27-1,20.14,20.14,0,0,0,2.77,1l2.17.67,2.46.85c.85.3,1.74.58,2.62.92l2.58,1.05a38.5,38.5,0,0,1,4.52,2.16c1,.25,2.7.81,2,.27l-1.7-.68c-1.36-1.09,3.4.88,1.37-.26,1.2.34,2.43.81,3.78,1.34.67.28,1.37.58,2.08.93s1.4.81,2.13,1.3l.26.85a8.16,8.16,0,0,0-2.73-1.77,16,16,0,0,1,2.85,1.88,17.72,17.72,0,0,0,1.64,1.08,3.58,3.58,0,0,0,1.46.58c-.61-.55-1.21-1.13-1.86-1.65,1.17.48,2.44,1.07,3.79,1.71a17.92,17.92,0,0,1,3.9,2.42c-.81-1.31-.61-.36-2-2.22,1.14,1.76-6.73-4.34-4.6-1.9A10.68,10.68,0,0,0,192.06,60a35.08,35.08,0,0,1-3-2.22c0,.22.76.82-1.54-.46a3,3,0,0,1-.59-.11l-.15-.09.12.09c-.12,0-.13,0,0,0a5,5,0,0,1,1,.88A17.94,17.94,0,0,1,184.74,57c-1.29-.49-2.58-1-3.26-1.18-1.37-.73.68,0,0-.5-.69-.18-1.37-.35-2.07-.48,0-.49-3.57-2.21,0-1.11l-3.07-1.23a26.08,26.08,0,0,0-5.9-2.17c-1.48-.53-3.93-.6-2.53-.57-.84-.19-1.68-.39-2.53-.56l-2.55-.45,0-.12a72.13,72.13,0,0,0-7.8-1.27,82.09,82.09,0,0,1-8.36-1.24c-.86,0-1.74,0-2.75,0s-2.18,0-3.62-.12l-.56-.4c-1.1,0-2.76,0-4.27,0a10,10,0,0,0-3.32.23,8.68,8.68,0,0,0-2.78-.27c-.6,0-1.24,0-1.92.08s-1.38.17-2.09.27c-1.43.22-2.91.41-4.26.69s-2.58.51-3.55.64l0,.52a38.66,38.66,0,0,0-3.94.93l-2.08.59c-.71.23-1.45.5-2.24.78l.32.37a50.46,50.46,0,0,1-5.07,1.52l-3.08.85c-1,.34-2.1.73-3.15,1.15a6,6,0,0,1,2.1-.85,21.89,21.89,0,0,0-4,1.22c-1.28.56-2.52,1.25-3.75,1.92s-2.39,1.42-3.56,2a32.22,32.22,0,0,1-3.47,1.67A10.36,10.36,0,0,1,83,61.33l.25-.17-.44.24a15.87,15.87,0,0,0-1.57.68c.49-.18.94-.38,1.34-.54a37.41,37.41,0,0,0-3.09,2.16l-.76-.08-.27.18c-1.26.6-.8.79,0,.7a10.77,10.77,0,0,0-1.36,1.28c-1.34,0-2.85,2.28-4.51,2.59a25.29,25.29,0,0,1-2.86,2.76c-1.22,1.23-2.38,2.48-2.38,3-.11,0-.45.18.11-.32a15.44,15.44,0,0,0-3.26,3.06h-.9l-.93,1.46-.88,1.51c-1.67,1.22-2.43,1.7-1.36-.11l-2.59,3.56a31,31,0,0,0-2.11,3.21l-.18-.41c-.91,1.19-2,3.39-2.78,3.9a22.71,22.71,0,0,0-2.68,3.16,28.89,28.89,0,0,0-1.74,2.49c-.59.91-1.23,1.88-1.88,2.89-2.47,4.12-5,9-7,12.78.88-.52.33.33-.3,1.42s-1.35,2.43-1,2.76c-.44.36-1,1.43-.74,0-.72,2.09-1.27,3.65-1.82,5a12,12,0,0,0-.93,4.24c-.4.41-.13-1-.41-.63a5,5,0,0,1-.44,1.82c-.28.39,0-.69,0-1.4a20.54,20.54,0,0,0-.57,2.64,5.69,5.69,0,0,0,0,1.6,1.82,1.82,0,0,0,.85,1.3,14,14,0,0,0-.85,2.63,8.7,8.7,0,0,0,0,2.33c-.39.72-.89,2-.5-.78l-.44,2.12c-.1.48-.2,1-.31,1.54l-.24,1.65c-.29,2.2-.48,4.24-.14,4.35a9.57,9.57,0,0,0-.17,2.59c-.16,1.75-.25,2.7-.26,3.64s-.06,1.89-.07,3.61l.12-1c.71,1.36.17,2.85.33,5.62l-.08-.07a21.65,21.65,0,0,0,0,3.21,11.06,11.06,0,0,0,.14,1.33,8.78,8.78,0,0,1,.14,1.31c0,.32,0,.72,0,1.23s0,1.15.06,1.94l.44-.4c.55.23.57,1.62.56,3.4a24,24,0,0,0,.66,5.71l0-1.35a10.87,10.87,0,0,1,.22,3.82,16,16,0,0,0,0,3.92c0,.45-.34-.63-.55-1.21.83,5.27.79.5,2,4.24-.12.79-1.12-.64-.39,1.91a28.43,28.43,0,0,0,1.9,4.43c.51,1,1,2,1.48,3.08.22.52.42,1,.59,1.53A10.87,10.87,0,0,1,39,198c-.09-.83-.17-1.65.76-.07,1.17,2.5,2.34,7.27,4.33,9.07.11.34.12.49.07.53.64.87,1.53,2.36,2.51,3.66a20.57,20.57,0,0,0,2.45,2.92,4.8,4.8,0,0,0,1.17,2.71,29.87,29.87,0,0,0,2.79,3.47c1,1.12,2,2.23,2.7,3.05s1.06,1.43.76,1.67c.73.81,1.44,1.65,2.2,2.44L61,229.77l-.23,0a23,23,0,0,0,3.37,3.13,14.24,14.24,0,0,0,2.19,1.38c.66.71,0,.36-.08.37A41,41,0,0,0,71,238.8a33.47,33.47,0,0,0,4.82,2.83l.15.71c1.22.62,6.9,5.68,12.55,7.92-.07,0-.23.06-.69-.1,3.13,1.32,6.63,3.37,9.85,4.85s6,2.47,7.5,2c1.44.37,2.93.57,4.39.85-5.48-1.7,1-.52-1.15-1.45a16.1,16.1,0,0,1,3.19,1.16c.77.34.91.6-.43.28l-.4-.2c-1.24.73,6.84,2,6.58,2.53A134.78,134.78,0,0,0,134,262.36a98,98,0,0,0,16.28-.26c-.44-.19-.86-.37-1.29-.59,1.22-.1,2.45-.27,3.67-.41,1,0,1.38.41-1.26.71a8.45,8.45,0,0,0,4.4-1.12c5.15-.62-1.85,1.2-.29.93l2.13-.43h-.5c.84-.3,1.28-.54,1.9-.76a29.18,29.18,0,0,1,3-.8c2-.31,1.11.21,1.89.06,0,.05.28,0,1.19-.26,1.52-.37,3-.8,4.54-1.2l-2-.05c1.91-.82,4.22-1.19,2-1.2,1.64,0,5.83-1.24,9.71-2.85,1.95-.77,3.8-1.7,5.31-2.36s2.61-1.3,3.08-1.45c.6-.42,1.2-.82,1.83-1.2s1.22-.81,1.87-1.21c1.29-.8,2.7-1.55,4.18-2.51-.8.37-1.58.1,1-1.47-.11.85,1.18.27,2.74-.72a26.93,26.93,0,0,1,4.73-2.66c-1.07.43.62-.94,2.16-2.25s2.83-2.65,1.24-1.85c2-1.58.44.28,2.11-.75,4.21-4.37,10-9,14.44-15.13-.07-.2-1.05.62-.27-.8,1.07-.84,2-1.77,3.06-2.68a4.83,4.83,0,0,0,.53-1.55,5,5,0,0,1,1.44-2c-.34.24-.83.6-.34-.27a81.15,81.15,0,0,0,10.35-19.78c2.66-7.07,4.65-14.34,6.64-21.62-.7,2-.49.61-.23-.92-.26,1-.43-.09-.7.07.48-2,1-4.06,1.42-6.12a11.71,11.71,0,0,1-.06-3.88c.13-1.6.1-3.16-.19-3.49l.07,2c-.35-1.32-.77-.42-1.26.74s-1.11,2.57-1.57,2.35a7.31,7.31,0,0,1,0,2.47c-.16.91-.44,1.89-.7,2.92a21.86,21.86,0,0,0-1,6.75c-.38,1-.15-.93-.47-.42.23,1.25-.05,2.67-.82,5.22l0-.32a48.68,48.68,0,0,1-1.29,4.78,40.82,40.82,0,0,1-1.41,4c-.5,1.3-1,2.62-1.69,4.07s-1.34,3.08-2.3,4.94l.69-.37a19.22,19.22,0,0,1-1.54,2.61c-.21,2.19,2.11-4.59,2.06-2.55a10.83,10.83,0,0,0-1.63,2.58l-2.07,3.93a39.3,39.3,0,0,1-2.17,3.69,5.62,5.62,0,0,1-1.74,2c-1.5,2.32.9-.39-.6,1.93l-.64.46-.06.8c-1,1.51-1.92,2-2.14,1.92.28-.34.66-1,.92-1.45a24.2,24.2,0,0,0-2.55,3.44,22.73,22.73,0,0,1-1.84,2.53c.59-.66,1.2-1.31,1.78-2-1.11,1.52-2.29,3.13-3.58,4.7s-2.65,3.15-4.12,4.63L211.92,228l-2.17,2.14c-1.39,1.45-2.84,2.75-4.11,4.07l.56-.19a22.67,22.67,0,0,1-2.34,2.12c-.61.48-1.09.8-1.59,1.14-1,.68-2.06,1.32-4.51,3.17l.15-.18a18.38,18.38,0,0,1-3.62,2.77c1.16-1.05-2.72,1.14-1.17-.2a38.6,38.6,0,0,0-3.44,2.55,12.8,12.8,0,0,1-2,2l-1,.1c-.54.46-.81.74-1.29,1.1a14.23,14.23,0,0,1-2.54,1.46c2.17-1.32-2,.3.37-1.24a29.7,29.7,0,0,0-4,1.53c-1.14.5-2.12,1-3,1.4a9.08,9.08,0,0,1-4.74,1.37c-1.24,1,.12.65,1.61.19s3.06-1.17,2.33-.75c.71-.09.21.31-.71.82a20.82,20.82,0,0,1-3.29,1.3,10.69,10.69,0,0,1-3.24.32,19.49,19.49,0,0,0-2.29.19c-.44.07-.92.15-1.45.27s-1.1.2-1.73.35c.5-.11.52-.2,1-.31a14.38,14.38,0,0,0-2.83.68c-.48.15-1,.29-1.5.41a9.84,9.84,0,0,1-1.68.14c-1.2.85-3,.51-3.28,1.36l4.64-1c-1.3.34-2.54.85-4,1.31a20.51,20.51,0,0,1-5.45.83,14.83,14.83,0,0,1,2.51-.81c-1.32-.09-2.46.51-3.83.36.16-.39,1.58-.59,3.31-.84.86-.13,1.81-.24,2.71-.4a15.58,15.58,0,0,0,2.42-.71,15,15,0,0,0-3,.57c-1,.2-1.63.3-1-.22a7.36,7.36,0,0,1-3.66.92,16.49,16.49,0,0,0-4.78.62l.2-.5a12.22,12.22,0,0,1-2.69.4l1.81-.66c-2.8.59-5.42-.27-8.1-.11,2.81.07,3.13.2,3,.39s-.59.43.61.58c-7,.5-4-1.19-11.75-1.57,1.05,0,3.92.59,2.25.69a19.38,19.38,0,0,1-4.27-1c-5.12-.55.73.58-1.49.59-1.67-.76-2.54-.16-4.83-.36l.07-.48c-.72-.16-1.28-.28-1.73-.35a7.52,7.52,0,0,0-1-.17,1.59,1.59,0,0,0-.89.12c-.36.17-.65.34-3.22-.44l2.36-.15c-.91-.16-1.83-.28-2.74-.47l.69-.38a23.84,23.84,0,0,1-3.41-.67A26.43,26.43,0,0,1,106,253c.55.54-.64.71-3.14-.12-1.58-.89,1.09-.06-2.4-1.34a5.2,5.2,0,0,1,3.24,1c.21-.1.88,0,1.09-.12-1.72-.87-4.47-1.74-5.72-2.22a11.29,11.29,0,0,1,1.3.64c-.87-.23-1.74-.44-2.61-.68l-2.59-.81c-.69-.51,0-.36.64-.22-1-.42-1.8-.47-3.25-1.17.55-.17.62-.54,2.75.21-1.62-.53-3.18-1.21-4.76-1.85-.23-.3-2.09-1.62-1.44-1.44a31.77,31.77,0,0,0-4.43-2.26,26.63,26.63,0,0,1-4.85-2.93,5.39,5.39,0,0,1-1.25-.63c-.7-.53-1.37-1.07-2-1.6l-1.94-1.69c-.66-.56-1.36-1.11-2.1-1.68s-1.51-1.17-2.38-1.76c-.44-.7-.9-1.36-1.3-2.08-2.47-2.14,1.72,2.86-2.4-.71-3-2.51-.63-1.41-1.45-2.51-.78-.57-1.88-1.33-3-2.32a17.5,17.5,0,0,1-3.23-3.84C59.56,221.67,60.08,222.43,60.84,223.23ZM40.23,188.78c.18.35.46.88.69,1.39a3,3,0,0,1,.44,1.31C40.5,190.85,40.5,190.1,40.23,188.78Zm-3.59-60.86a7.27,7.27,0,0,1-.68,2.44A11.46,11.46,0,0,1,36.64,127.92Zm137.14-76h-.09C172,51.15,172.61,51.43,173.78,51.92Zm3.49,1.5c.38.07.38,0,.25-.12a7.33,7.33,0,0,1-2-.67A3.9,3.9,0,0,0,177.27,53.42Zm-13,206-.75,0C165.11,259,164.69,259.18,164.28,259.42Z"/><path class="cls-1" d="M35.77,134.92a.55.55,0,0,1-.32.29C35.47,135.53,35.57,135.55,35.77,134.92Z"/><path class="cls-1" d="M79.72,239.61l.1.08H80Z"/><path class="cls-1" d="M120.37,51.87a7,7,0,0,1-1.46,0C118.89,52,119.24,52,120.37,51.87Z"/><path class="cls-1" d="M195.63,61.6c-.7-.42-1.43-.77-2.16-1.14a8.58,8.58,0,0,1,1.81,1.25C195.29,61.59,195,61.2,195.63,61.6Z"/><path class="cls-1" d="M210.44,76.6c.29.19.54.5.82.69l.09-.22C210.27,76.05,209.4,75.47,210.44,76.6Z"/><path class="cls-1" d="M196.66,64.17c-.07.46,1.32,1.09,2.71,2l-.24-.17C199.86,65.84,198.29,65,196.66,64.17Z"/><path class="cls-1" d="M199.7,66.42c.43.28.87.58,1.27.89C201.26,67.24,200.48,66.9,199.7,66.42Z"/><path class="cls-1" d="M181.82,55c.69.43.67-.27,1,.07C183.87,54.94,177.67,53.45,181.82,55Z"/><polygon class="cls-1" points="197.07 66.02 196.85 65.28 195.84 65.11 197.07 66.02"/><path class="cls-1" d="M185.87,59.12l2.31,1.34c0-.1.33,0,.72.17A18.57,18.57,0,0,0,185.87,59.12Z"/><path class="cls-1" d="M188.9,60.63a17.15,17.15,0,0,0,1.91,1C190.4,61.4,189.54,60.89,188.9,60.63Z"/><path class="cls-1" d="M193.93,64.18l-.6-.51-1.61-1C192.46,63.2,193.22,63.65,193.93,64.18Z"/><path class="cls-1" d="M158.82,49.83l-2.89-.37c-.32.11.44.36,1.52.48C158.15,49.94,159.23,50.07,158.82,49.83Z"/><path class="cls-1" d="M167,53.2a3.85,3.85,0,0,1-1.12-.72l-.25.58Z"/><path class="cls-1" d="M158.84,51.37c-.32.12-4.18-.24-.61.36C158.55,51.59,161.4,52,158.84,51.37Z"/><polygon class="cls-1" points="115.69 51.04 116.41 50.87 116.09 49.9 115.69 51.04"/><path class="cls-1" d="M81.79,67.88c3-1.59.33-1,3.06-2.32.54-.64-2.24,1.1-1.66.5C81.61,67.37,80.64,67.83,81.79,67.88Z"/><path class="cls-1" d="M83.19,66.06c.26-.21.52-.44.8-.7A8.1,8.1,0,0,0,83.19,66.06Z"/><path class="cls-1" d="M246.8,160.7c.15-.75.2-1.5.3-2.25l-.38,1.44C246.76,160.16,246.77,160.43,246.8,160.7Z"/><path class="cls-1" d="M246.19,156.35l.66-.52-.55-1.36A7.08,7.08,0,0,1,246.19,156.35Z"/><path class="cls-1" d="M39.68,182.69l-.19-.12a4.72,4.72,0,0,0,.3,1.83Z"/><polygon class="cls-1" points="51.05 209.33 50.79 208.9 50.8 210 51.05 209.33"/><path class="cls-1" d="M66.9,227.76c-.71-.68-1.61-1.43-2.27-2.18C66.17,227.09,66.6,228.46,66.9,227.76Z"/></svg>