<svg id="Layer_1" data-name="Layer 1" xmlns="http://www.w3.org/2000/svg" viewBox="0 0 177.9 151.48"><defs><style>.cls-1{fill:#a8a736;}</style></defs><title>Artboard 6</title><path class="cls-1" d="M73.85,56.33,79,55.88a17.84,17.84,0,1,1,14.51,0l10.13.41,3.29.62,18.39,5.47,16.9-9,3.15,6-18,9.4a5.12,5.12,0,0,1-1.92.45,5.18,5.18,0,0,1-1.94-.32l-19.46-5.31V97.71l.14.3,9.52,20.17a.91.91,0,0,1,.54.53.89.89,0,0,1-.34,1l-7.78,17.12h14.75v6.73H98.32v-6.11a1.17,1.17,0,0,1,.13-.52,1.25,1.25,0,0,1,.49-.51q3.87-8.52,7.76-17l-8.45-18.22h-23l-.69.44L63.93,120l4.59,19a4.8,4.8,0,0,1-.09.5,5.81,5.81,0,0,1-.23.79l0,3.35H45.56v-6.73H61.47l-4.66-17.48a1.56,1.56,0,0,1-.06-.69,1.71,1.71,0,0,1,.84-1.16L68.42,98.72v-35l-19.27,3a2.57,2.57,0,0,1-1,.11,3,3,0,0,1-1.51-.54c-.66-.44-5.32-2.12-19.86-6.8.73-2.12,1.45-4.24,2.18-6.37L48.26,59.7l20.16-2.78,1.81-.26Z"/></svg>