<svg id="Layer_1" data-name="Layer 1" xmlns="http://www.w3.org/2000/svg" viewBox="0 0 177.4 151.05"><defs><style>.cls-1{fill:#c2b59b;}.cls-2{fill:#231f20;}.cls-3{fill:#f7941d;}.cls-4{fill:none;stroke:#231f20;stroke-miterlimit:10;stroke-width:0.25px;}</style></defs><title>wall</title><g id="Wall"><rect class="cls-1" width="177.4" height="151.05"/><path class="cls-2" d="M177.52,151.18H-.13V-.13H177.52ZM.13,150.93H177.27V.13H.13Z"/><rect class="cls-3" x="2.73" y="3.07" width="40" height="13.06"/><rect class="cls-4" x="2.73" y="3.07" width="40" height="13.06"/><rect class="cls-3" x="24.86" y="19.07" width="40" height="13.06"/><rect class="cls-4" x="24.86" y="19.07" width="40" height="13.06"/><rect class="cls-3" y="19.07" width="21.13" height="13.06"/><rect class="cls-4" y="19.07" width="21.13" height="13.06"/><rect class="cls-3" x="156.05" y="18.93" width="21.35" height="13.07"/><rect class="cls-4" x="156.05" y="18.93" width="21.35" height="13.07"/><rect class="cls-3" x="156.05" y="52.13" width="21.35" height="13.07"/><rect class="cls-4" x="156.05" y="52.13" width="21.35" height="13.07"/><rect class="cls-3" x="156.05" y="83.87" width="21.35" height="13.06"/><rect class="cls-4" x="156.05" y="83.87" width="21.35" height="13.06"/><rect class="cls-3" x="156.05" y="116.4" width="21.35" height="13.07"/><rect class="cls-4" x="156.05" y="116.4" width="21.35" height="13.07"/><rect class="cls-3" y="116.4" width="20" height="13.07"/><rect class="cls-4" y="116.4" width="20" height="13.07"/><rect class="cls-3" y="83.87" width="20" height="13.06"/><rect class="cls-4" y="83.87" width="20" height="13.06"/><rect class="cls-3" y="52.13" width="21.4" height="13.07"/><rect class="cls-4" y="52.13" width="21.4" height="13.07"/><rect class="cls-3" x="68.59" y="19.07" width="40" height="13.06"/><rect class="cls-4" x="68.59" y="19.07" width="40" height="13.06"/><rect class="cls-3" x="112.32" y="19.07" width="40" height="13.06"/><rect class="cls-4" x="112.32" y="19.07" width="40" height="13.06"/><rect class="cls-3" x="133.66" y="34.8" width="40" height="13.07"/><rect class="cls-4" x="133.66" y="34.8" width="40" height="13.07"/><rect class="cls-3" x="89.93" y="34.8" width="40" height="13.07"/><rect class="cls-4" x="89.93" y="34.8" width="40" height="13.07"/><rect class="cls-3" x="46.19" y="34.8" width="40" height="13.07"/><rect class="cls-4" x="46.19" y="34.8" width="40" height="13.07"/><rect class="cls-3" x="2.46" y="34.8" width="40" height="13.07"/><rect class="cls-4" x="2.46" y="34.8" width="40" height="13.07"/><rect class="cls-3" x="25.13" y="52.13" width="40" height="13.07"/><rect class="cls-4" x="25.13" y="52.13" width="40" height="13.07"/><rect class="cls-3" x="68.86" y="52.13" width="40" height="13.07"/><rect class="cls-4" x="68.86" y="52.13" width="40" height="13.07"/><rect class="cls-3" x="112.59" y="52.13" width="40" height="13.07"/><rect class="cls-4" x="112.59" y="52.13" width="40" height="13.07"/><rect class="cls-3" x="133.66" y="67.6" width="40" height="13.07"/><rect class="cls-4" x="133.66" y="67.6" width="40" height="13.07"/><rect class="cls-3" x="90.2" y="67.6" width="40" height="13.07"/><rect class="cls-4" x="90.2" y="67.6" width="40" height="13.07"/><rect class="cls-3" x="46.74" y="67.6" width="40" height="13.07"/><rect class="cls-4" x="46.74" y="67.6" width="40" height="13.07"/><rect class="cls-3" x="3.28" y="67.6" width="40" height="13.07"/><rect class="cls-4" x="3.28" y="67.6" width="40" height="13.07"/><rect class="cls-3" x="24.86" y="83.87" width="40" height="13.06"/><rect class="cls-4" x="24.86" y="83.87" width="40" height="13.06"/><rect class="cls-3" x="68.59" y="83.87" width="40" height="13.06"/><rect class="cls-4" x="68.59" y="83.87" width="40" height="13.06"/><rect class="cls-3" x="112.32" y="83.87" width="40" height="13.06"/><rect class="cls-4" x="112.32" y="83.87" width="40" height="13.06"/><rect class="cls-3" x="133.66" y="99.87" width="40" height="13.06"/><rect class="cls-4" x="133.66" y="99.87" width="40" height="13.06"/><rect class="cls-3" x="89.93" y="99.87" width="40" height="13.06"/><rect class="cls-4" x="89.93" y="99.87" width="40" height="13.06"/><rect class="cls-3" x="46.74" y="99.87" width="40" height="13.06"/><rect class="cls-4" x="46.74" y="99.87" width="40" height="13.06"/><rect class="cls-3" x="2.73" y="99.87" width="40" height="13.06"/><rect class="cls-4" x="2.73" y="99.87" width="40" height="13.06"/><rect class="cls-3" x="24.06" y="116.4" width="40" height="13.07"/><rect class="cls-4" x="24.06" y="116.4" width="40" height="13.07"/><rect class="cls-3" x="67.79" y="116.4" width="40" height="13.07"/><rect class="cls-4" x="67.79" y="116.4" width="40" height="13.07"/><rect class="cls-3" x="111.52" y="116.4" width="40" height="13.07"/><rect class="cls-4" x="111.52" y="116.4" width="40" height="13.07"/><rect class="cls-3" x="133.92" y="134.53" width="40" height="13.07"/><rect class="cls-4" x="133.92" y="134.53" width="40" height="13.07"/><rect class="cls-3" x="89.91" y="134.53" width="40" height="13.07"/><rect class="cls-4" x="89.91" y="134.53" width="40" height="13.07"/><rect class="cls-3" x="45.91" y="134.53" width="40" height="13.07"/><rect class="cls-4" x="45.91" y="134.53" width="40" height="13.07"/><rect class="cls-3" x="2.72" y="134.53" width="40" height="13.07"/><rect class="cls-4" x="2.72" y="134.53" width="40" height="13.07"/><rect class="cls-3" x="46.47" y="3.07" width="40" height="13.06"/><rect class="cls-4" x="46.47" y="3.07" width="40" height="13.06"/><rect class="cls-3" x="90.2" y="3.07" width="40" height="13.06"/><rect class="cls-4" x="90.2" y="3.07" width="40" height="13.06"/><rect class="cls-3" x="133.93" y="3.07" width="40" height="13.06"/><rect class="cls-4" x="133.93" y="3.07" width="40" height="13.06"/></g></svg>